<svg width="461" height="459" viewBox="0 0 461 459" fill="none" xmlns="http://www.w3.org/2000/svg">
<mask id="mask0_146_1063" style="mask-type:luminance" maskUnits="userSpaceOnUse" x="0" y="0" width="461" height="459">
<path d="M0 -5.40778e-05H460.859V458.059H0V-5.40778e-05Z" fill="white"/>
</mask>
<g mask="url(#mask0_146_1063)">
<path d="M114.287 402.575C114.287 409.153 111.605 409.996 109.271 409.996C106.787 409.996 103.481 409.227 103.481 402.575V395.568C103.481 392.508 103.169 389.784 103.156 389.669L103.069 388.923L98.9292 388.925L99.2079 389.984C99.2119 390.001 99.6772 391.819 99.6772 395.567L99.6665 402.575C99.6665 408.94 102.857 412.304 108.889 412.304C115.079 412.304 118.088 409.121 118.088 402.575V388.923H114.287V402.575Z" fill="#EAEAFF"/>
<path d="M145.852 404.369C143.587 401.104 140.136 396.12 138.884 394.264C137.112 391.637 135.295 389.276 135.276 389.252L135.023 388.923H132.255L131.162 389.033L131.488 390.12C131.571 390.305 132.302 392.027 132.302 395.568V405.037C132.302 408.219 131.798 410.641 131.794 410.665L131.578 411.684H135.775L135.559 410.664C135.555 410.64 135.048 408.219 135.048 405.037V395.6C135.976 396.84 136.715 397.867 137.256 398.668L146.254 411.685H148.588V395.569C148.588 392.119 149.099 389.992 149.104 389.971L149.36 388.924H145.852V404.369Z" fill="#EAEAFF"/>
<path d="M166.393 388.922L162.304 388.924L162.537 389.953C162.541 389.974 163.016 392.108 163.016 395.566V411.682H166.828V395.576C166.828 392.458 166.593 390.394 166.492 389.653L166.393 388.922Z" fill="#EAEAFF"/>
<path d="M197.083 389.94C197.084 389.947 197.199 390.542 197.072 391.524C196.952 392.468 196.646 393.482 196.078 394.811C193.582 400.638 192.079 404.124 191.191 406.176C189.891 403.202 187.452 397.592 186.442 395.238C185.17 392.27 184.59 390.019 184.559 389.724L184.515 388.926H179.415L179.976 390.128C179.978 390.131 181.314 392.984 182.53 395.766C182.759 396.288 183.718 398.51 184.87 401.178C186.542 405.051 188.62 409.864 189.464 411.802L189.686 412.307H191.526L198.686 395.474C200.207 391.906 201.099 390.175 201.108 390.158L201.746 388.926L196.883 388.932L197.083 389.94Z" fill="#EAEAFF"/>
<path d="M227.245 408.751L227.151 407.633L226.102 408.032C226.067 408.047 222.547 409.371 219.145 409.371H216.878V401.772H223.089L223.465 399.459H216.878V395.576C216.878 393.665 216.797 392.281 216.703 391.239H218.585C221.971 391.239 225.007 392.475 225.037 392.488L226.089 392.923L226.199 391.791C226.309 390.676 226.202 389.713 226.198 389.672L226.114 388.924L212.294 388.929L212.553 389.976C212.558 389.996 213.067 392.097 213.067 395.568V411.685H227.191L227.255 410.909C227.339 409.904 227.249 408.797 227.245 408.751Z" fill="#EAEAFF"/>
<path d="M245.512 402.538H245.509C244.458 402.538 243.657 402.202 243.238 401.977L243.248 395.577C243.248 393.506 243.117 391.713 243.028 390.732C243.457 390.672 244.046 390.612 244.71 390.612C248.396 390.612 250.872 393.036 250.872 396.644C250.872 398.233 250.325 399.717 249.332 400.822C248.338 401.929 246.981 402.538 245.512 402.538ZM254.744 408.569C254.324 408.188 253.86 407.49 253.412 406.814C253.137 406.401 252.861 405.989 252.585 405.621C251.984 404.826 251.346 404.186 250.674 403.706C253.256 402.285 254.84 399.649 254.84 396.578C254.84 392.014 251.29 388.536 246.526 388.337V388.301H246.121V388.308C243.609 388.333 241.305 388.516 239.626 388.826L238.936 389.066V389.769L238.964 389.985C238.969 390.004 239.436 391.821 239.436 395.569V411.685H243.237V404.509C243.974 404.666 245.009 404.829 246.121 404.829C247.002 404.829 247.529 405.042 248.001 405.59C248.457 406.121 248.837 406.729 249.241 407.373C249.961 408.522 250.777 409.825 252.238 411.028C253.228 411.84 254.564 412.306 255.902 412.308C256.973 412.308 257.965 412.05 258.77 411.566L259.178 411.198V409.857L258.314 409.877C258.294 409.882 256.232 409.917 254.744 408.569Z" fill="#EAEAFF"/>
<path d="M278.673 398.332C275.793 397.16 274.008 396.041 274.008 394.099C274.008 392.112 275.871 390.615 278.339 390.615C279.877 390.615 280.859 391.073 281.836 392.253L283.128 393.807L283.327 391.796C283.436 390.684 283.329 389.719 283.325 389.679L283.263 389.127L282.732 388.965C282.076 388.767 280.336 388.305 278.339 388.305C272.751 388.305 270.207 391.308 270.207 394.1C270.207 397.531 271.916 399.691 275.921 401.323L276.273 401.467C278.665 402.433 281.643 403.64 281.643 406.141C281.643 407.4 280.579 409.999 277.291 409.999C275.588 409.999 273.767 409.216 271.561 407.533L270.332 406.596L270.208 408.136C270.204 408.183 270.116 409.285 270.197 410.292L270.233 410.733L270.616 410.953C271.777 411.628 274.291 412.308 277.288 412.308C282.892 412.308 285.444 408.932 285.444 405.795C285.444 401.089 281.929 399.657 278.673 398.332Z" fill="#EAEAFF"/>
<path d="M301.635 388.922L297.547 388.924L297.781 389.954C297.786 389.976 298.259 392.108 298.259 395.566V411.682H302.07V395.576C302.07 392.434 301.837 390.386 301.735 389.652L301.635 388.922Z" fill="#EAEAFF"/>
<path d="M331.289 388.926L315.196 388.924L315.104 389.663C315.098 389.7 314.989 390.594 315.101 391.714L315.206 392.778L316.217 392.428C316.244 392.419 318.76 391.558 321.341 391.388L321.333 411.698L325.142 411.683V391.387C327.858 391.548 330.224 392.414 330.25 392.423L331.276 392.803L331.384 391.715C331.496 390.595 331.385 389.702 331.381 389.664L331.289 388.926Z" fill="#EAEAFF"/>
<path d="M357.423 388.936L357.407 389.762C357.407 389.78 357.351 391.549 355.589 395.202C355.077 396.265 353.537 399.474 352.59 401.453L349.563 395.204C348.067 392.116 347.531 390.228 347.457 389.661L347.361 388.926H342.263L342.894 390.156C342.894 390.156 344.446 393.186 345.737 395.929L350.101 405.228V411.685H353.911V405.225L358.173 395.922C358.941 394.25 359.566 392.954 360.055 392.022C360.677 390.84 361.057 390.256 361.071 390.234L361.93 388.926L357.423 388.936Z" fill="#EAEAFF"/>
<path d="M81.3443 339.302C81.3363 339.3 81.327 339.3 81.3176 339.299C60.099 336.336 48.7736 312.399 48.7736 312.399C48.7736 312.399 45.751 320.942 45.751 333.427C45.751 333.427 50.9736 338.61 60.0216 343.119C67.0976 341.764 74.2056 340.49 81.3443 339.302Z" fill="#EAEAFF"/>
<path d="M216.303 228.746C195.015 228.746 180.347 232.184 180.347 232.184C180.347 232.184 185.539 242.035 185.539 261.999V310.886C185.539 324.931 181.85 328.198 181.85 328.198L182.089 328.308C188.677 327.96 195.286 327.691 201.914 327.486V327.476V263.855C201.914 250.78 200.256 242.17 198.892 239.842C198.892 239.842 205.232 238.462 215.876 238.462C243.434 238.462 264.391 251.364 264.391 283.086C264.391 306.687 248.286 321.896 230.43 326.85V327.035C237.099 327.035 243.747 327.115 250.38 327.259C250.386 327.256 250.392 327.254 250.399 327.251C267.566 320.723 280.512 305.304 280.512 283.704C280.512 248.838 250.28 228.746 216.303 228.746Z" fill="#EAEAFF"/>
<path d="M347.798 312.517L347.826 229.898C341.305 229.768 334.765 229.646 328.205 229.537C328.743 231.616 331.453 243.14 331.453 264.578V304.82C331.453 316.954 334.23 326.426 338.954 333.501C345.857 334.328 352.735 335.233 359.585 336.216C352.501 331.77 347.798 323.588 347.798 312.517Z" fill="#EAEAFF"/>
<path d="M398.734 231.149V312.517C398.734 327.111 390.568 336.695 379.535 339.299C385.772 340.338 391.983 341.446 398.172 342.611C408.447 335.355 415.108 322.751 415.108 304.821V231.653C409.664 231.478 404.208 231.309 398.734 231.149Z" fill="#EAEAFF"/>
<path d="M93.0859 282.095C74.0379 272.767 66.3459 267.704 66.3459 257.407C66.3459 247.884 75.6352 240.251 89.2899 240.251C110.765 240.251 118.798 256.262 118.798 256.262C118.798 244.876 116.21 236.862 116.21 236.862C116.21 236.862 108.238 230.482 89.2899 230.482C69.2272 230.482 51.8672 242.914 51.8672 260.112C51.8672 277.311 63.0659 286.635 82.2525 295.762C101.439 304.887 111.495 311.236 111.495 321.276C111.495 327.831 108.202 332.967 101.163 336.223C101.153 336.228 101.141 336.232 101.13 336.238C107.935 335.26 114.763 334.35 121.621 333.526C125.041 328.651 126.947 323.019 126.947 317.123C126.947 300.378 112.179 291.446 93.0859 282.095Z" fill="#EAEAFF"/>
<path d="M198.409 351.627C198.384 352.29 198.372 353.367 198.372 353.614V365.483H200.625L200.618 353.614C200.618 350.502 200.68 349.302 200.68 349.274V348.911L200.074 348.905L199.982 348.985C199.972 348.993 198.972 349.855 197.424 351.057L197.298 351.153V351.799H197.621C197.714 351.799 197.978 351.742 198.409 351.627Z" fill="#F5A467"/>
<path d="M213.814 358.231C212.948 357.372 212.49 356.052 212.49 354.416C212.49 351.395 213.942 349.591 216.376 349.591C218.814 349.591 220.269 351.776 220.269 355.438C220.266 357.446 218.446 359.222 216.374 359.24C215.38 359.228 214.488 358.899 213.814 358.231ZM216.377 360.355C218.037 360.355 219.012 359.97 219.69 359.538C218.518 363.044 215.449 364.874 212.816 364.874H212.493V365.196C212.493 365.483 212.526 365.716 212.526 365.716L212.566 365.994H212.846C218.242 365.994 222.633 361.258 222.633 355.439C222.633 351.274 220.118 348.475 216.376 348.475C212.81 348.475 210.12 351.03 210.12 354.416C210.12 357.367 212.269 360.355 216.377 360.355Z" fill="#F5A467"/>
<path d="M237.847 359.24C236.86 359.24 235.99 358.892 235.323 358.23C234.456 357.373 233.999 356.053 233.999 354.417C233.999 351.394 235.451 349.59 237.884 349.59C240.323 349.59 241.778 351.777 241.778 355.438C241.775 357.445 239.955 359.221 237.882 359.24H237.847ZM237.886 360.354C239.546 360.354 240.52 359.969 241.199 359.537C240.027 363.045 236.958 364.874 234.324 364.874H234.002V365.197C234.002 365.484 234.035 365.716 234.035 365.716L234.075 365.993H234.355C239.751 365.993 244.142 361.258 244.142 355.438C244.142 351.273 241.627 348.474 237.884 348.474C234.319 348.474 231.628 351.029 231.628 354.417C231.628 357.368 233.778 360.354 237.886 360.354Z" fill="#F5A467"/>
<path d="M255.499 359.03C255.503 357.022 257.324 355.246 259.396 355.229H259.432C260.418 355.229 261.29 355.577 261.955 356.237C262.82 357.095 263.279 358.414 263.279 360.051C263.279 363.074 261.827 364.878 259.395 364.878C256.956 364.878 255.499 362.691 255.499 359.03ZM259.394 354.115C257.734 354.115 256.758 354.501 256.082 354.933C257.251 351.425 260.322 349.595 262.955 349.595H263.29L263.278 349.262C263.267 348.959 263.246 348.762 263.246 348.762L263.212 348.475H262.924C257.528 348.475 253.138 353.211 253.138 359.03C253.138 363.195 255.652 365.994 259.395 365.994C262.962 365.994 265.651 363.439 265.651 360.053C265.651 357.102 263.502 354.115 259.394 354.115Z" fill="#F5A467"/>
<path d="M98.9292 365.926C126.54 362.224 154.323 359.844 182.144 358.611L182.037 356.614C154.221 358.398 126.473 361.326 98.9292 365.571V365.926Z" fill="#F5A467"/>
<path d="M361.93 365.926C334.319 362.224 306.536 359.844 278.715 358.611L278.822 356.614C306.638 358.398 334.386 361.326 361.93 365.571V365.926Z" fill="#F5A467"/>
<path d="M230.43 98.7383L238.055 85.5316L230.43 72.3236L222.804 85.5316L230.43 98.7383Z" fill="#F5A467"/>
<path d="M226.124 152.597C226.877 153.329 227.734 154.176 228.612 155.048C227.685 155.974 226.801 156.854 226.076 157.577C225.208 156.709 224.361 155.862 223.614 155.116C224.329 154.397 225.202 153.521 226.124 152.597ZM230.429 148.298C231.168 149.032 232.02 149.882 232.897 150.758C232.158 151.5 231.306 152.353 230.429 153.23C229.552 152.353 228.701 151.5 227.962 150.758C228.84 149.882 229.692 149.032 230.429 148.298ZM230.429 161.93C229.697 161.198 228.832 160.333 227.924 159.425C228.64 158.682 229.51 157.796 230.429 156.869C231.349 157.796 232.218 158.682 232.934 159.425C232.028 160.333 231.161 161.198 230.429 161.93ZM237.244 155.116C236.498 155.862 235.652 156.709 234.784 157.577C234.057 156.854 233.174 155.974 232.246 155.048C233.124 154.176 233.982 153.329 234.736 152.597C235.657 153.521 236.53 154.397 237.244 155.116ZM264.168 132.246C256.038 138.37 247.588 144.773 239.462 152.898C239.37 152.99 239.262 153.098 239.144 153.217C238.438 152.514 237.58 151.658 236.673 150.753C236.732 150.701 236.786 150.65 236.837 150.605C252.488 136.649 258.804 130.888 261.746 127.946C274.906 114.797 286.05 99.5384 286.05 85.5317C286.05 77.6877 282.284 69.0824 279.35 66.1504C279.35 66.1504 279.857 68.7184 279.857 72.3237C279.857 85.5317 279.857 98.9411 259.106 123.257C256.21 126.649 249.6 133.765 234.849 148.789C234.828 148.81 234.802 148.837 234.778 148.86C233.909 147.989 233.066 147.144 232.337 146.412C232.341 146.408 232.346 146.401 232.352 146.397C241.1 137.846 249.722 128.65 256.593 118.793C270.436 98.9331 273.664 85.5317 273.664 72.3237C273.664 56.3317 264.369 45.7491 261.032 45.7491C263.681 53.3451 264.897 63.0064 264.897 72.3237C264.897 85.5317 261.769 99.4011 253.524 113.341C246.933 124.484 239.46 135.312 230.429 144.489C221.4 135.312 213.925 124.484 207.336 113.341C199.09 99.4011 195.962 85.5317 195.962 72.3237C195.962 63.0064 197.177 53.3451 199.826 45.7491C196.489 45.7491 187.196 56.3317 187.196 72.3237C187.196 85.5317 190.424 98.9331 204.266 118.793C211.137 128.65 219.76 137.846 228.508 146.397C228.512 146.401 228.518 146.408 228.522 146.412C227.793 147.144 226.949 147.989 226.08 148.86C226.057 148.837 226.032 148.81 226.01 148.789C211.258 133.765 204.648 126.649 201.753 123.257C181.002 98.9411 181.002 85.5317 181.002 72.3237C181.002 68.7184 181.508 66.1504 181.508 66.1504C178.576 69.0824 174.808 77.6877 174.808 85.5317C174.808 99.5384 185.953 114.797 199.112 127.946C202.056 130.888 208.372 136.649 224.022 150.605C224.072 150.65 224.128 150.701 224.186 150.753C223.28 151.658 222.421 152.514 221.716 153.217C221.597 153.098 221.489 152.99 221.397 152.898C213.272 144.773 204.821 138.37 196.692 132.246C187.196 125.093 181.002 117.796 174.808 106.2C174.808 117.796 181.002 128.568 194.328 136.444C201.232 140.524 208.818 145.197 219.4 154.569C219.481 154.641 219.648 154.8 219.881 155.025C214.594 160.166 208.773 164.8 202.669 169.054C203.342 170.354 204.104 171.6 204.945 172.786C210.828 167.828 216.452 162.412 221.822 156.934C222.56 157.664 223.402 158.502 224.266 159.365C216.826 166.666 211.352 171.945 207.32 175.753C208.301 176.833 209.357 177.841 210.477 178.776C214.02 174.89 219.006 169.338 226.188 161.288C227.078 162.18 227.921 163.029 228.622 163.74C222.942 169.434 218.105 175.286 213.612 181.074C214.708 181.781 215.846 182.428 217.03 182.997C220.27 178.034 224.36 172.45 230.417 165.61C230.421 165.606 230.426 165.601 230.429 165.597C230.433 165.601 230.438 165.606 230.441 165.61C236.5 172.45 240.588 178.034 243.829 182.997C245.013 182.428 246.15 181.781 247.248 181.074C242.754 175.286 237.917 169.434 232.237 163.74C232.937 163.029 233.781 162.18 234.672 161.288C241.853 169.338 246.84 174.89 250.382 178.776C251.502 177.841 252.558 176.833 253.538 175.753C249.506 171.945 244.033 166.666 236.593 159.365C237.457 158.502 238.298 157.664 239.036 156.934C244.408 162.412 250.032 167.828 255.913 172.786C256.754 171.6 257.516 170.354 258.189 169.054C252.086 164.8 246.265 160.166 240.978 155.025C241.21 154.8 241.378 154.641 241.46 154.569C252.041 145.197 259.626 140.524 266.53 136.444C279.857 128.568 286.05 117.796 286.05 106.2C279.857 117.796 273.664 125.093 264.168 132.246Z" fill="#EAEAFF"/>
</g>
</svg>
